<svg class="diagram-root" style="background: #f5f6f6" xmlns="http://www.w3.org/2000/svg" xmlns:xlink="http://www.w3.org/1999/xlink"><style>.diagram-root { font-family: "Helvetica Neue", sans-serif; font-size: 12px; } .t { overflow: visible; } .t-bg { y: 40; fill: #fff;   } .th { fill: #005aa0;   } .tht { fill: #fff; font-size: 14px;  } .tf { fill: #323c46; overflow: visible; } .tf.pk { fill: #005aa0; font-weight: bold; } .tf.fk { font-weight: bold; } .ty { fill: #adb1b5; font-weight: normal; text-anchor: end; } .r { fill: transparent; stroke: #c3c3c3; stroke-width: 1; } .l { stroke: 1; } .i { fill: #c2c7ce; stroke: #c2c7ce; } .i.ix { fill: #afb3b6; stroke: #000; } .fa { fill: transparent; overflow: visible; } .fa .bg.hover { fill: #f7f7f7; } .c { cy: 12; r: 4; stroke: #d2d2dc; fill: #d2d2dc; } .hr { fill: transparent; stroke: #323c46; stroke-opacity: 0.035; stroke-width: 13; } .dc { stroke: #fa5a3c; fill: #fa5a3c; } .x { stroke: white; stroke-width: 1; } .hl .th { fill: #1b9bff; } .hl .tht {  } .fhl .bg { fill: #e7f4ff; } .fhls .bg {  } .r.hl { stroke: #1b9bff; } .dim { opacity: 0.25; }</style><g class="drawing-wrapper" transform="translate(362.54444444444425, 221.13) scale(1,1)"><g class="rs"><path d="M -173.6 -131.35 m -1, 0 a 1,1 0 1,0 2,0 a 1,1 0 1,0 -2,0 M -173.6 -131.35 m -0.5, 0 a 0.5,0.5 0 1,0 1,0 a 0.5,0.5 0 1,0 -1,0  M-173.6 -131.35 L-173.6 -131.35 -161.6 -131.35 M-167.6 -125.35 L-167.6 -125.35 -167.6 -137.35 M-161.6 -131.35 C -111.6 -131.35, -111.13199999999999 67.23, -162.38 67.23 M -174.38 67.23 m -1, 0 a 1,1 0 1,0 2,0 a 1,1 0 1,0 -2,0 M -174.38 67.23 m -0.5, 0 a 0.5,0.5 0 1,0 1,0 a 0.5,0.5 0 1,0 -1,0  M-174.38 67.23 L-174.38 67.23 -162.38 67.23 M -174.38 73.23 m -1, 0 a 1,1 0 1,0 2,0 a 1,1 0 1,0 -2,0 M -174.38 73.23 m -0.5, 0 a 0.5,0.5 0 1,0 1,0 a 0.5,0.5 0 1,0 -1,0  M-174.38 73.23 L-174.38 73.23 -167.38 67.23 -174.38 61.230000000000004 M -174.38 61.230000000000004 m -1, 0 a 1,1 0 1,0 2,0 a 1,1 0 1,0 -2,0 M -174.38 61.230000000000004 m -0.5, 0 a 0.5,0.5 0 1,0 1,0 a 0.5,0.5 0 1,0 -1,0 " id="h3708581855" class="r"></path><path d="M -59.16 -128.56 m -1, 0 a 1,1 0 1,0 2,0 a 1,1 0 1,0 -2,0 M -59.16 -128.56 m -0.5, 0 a 0.5,0.5 0 1,0 1,0 a 0.5,0.5 0 1,0 -1,0  M-59.16 -128.56 L-59.16 -128.56 -71.16 -128.56 M-65.16 -122.56 L-65.16 -122.56 -65.16 -134.56 M-71.16 -128.56 Q -93.96 -128.56, -116.77 -18.16 T -162.38 92.23 M -174.38 92.23 m -1, 0 a 1,1 0 1,0 2,0 a 1,1 0 1,0 -2,0 M -174.38 92.23 m -0.5, 0 a 0.5,0.5 0 1,0 1,0 a 0.5,0.5 0 1,0 -1,0  M-174.38 92.23 L-174.38 92.23 -162.38 92.23 M -174.38 98.23 m -1, 0 a 1,1 0 1,0 2,0 a 1,1 0 1,0 -2,0 M -174.38 98.23 m -0.5, 0 a 0.5,0.5 0 1,0 1,0 a 0.5,0.5 0 1,0 -1,0  M-174.38 98.23 L-174.38 98.23 -167.38 92.23 -174.38 86.23 M -174.38 86.23 m -1, 0 a 1,1 0 1,0 2,0 a 1,1 0 1,0 -2,0 M -174.38 86.23 m -0.5, 0 a 0.5,0.5 0 1,0 1,0 a 0.5,0.5 0 1,0 -1,0 " id="h2288525087" class="r"></path><path d="M 206.29 -59.129999999999995 m -1, 0 a 1,1 0 1,0 2,0 a 1,1 0 1,0 -2,0 M 206.29 -59.129999999999995 m -0.5, 0 a 0.5,0.5 0 1,0 1,0 a 0.5,0.5 0 1,0 -1,0  M206.29 -59.129999999999995 L206.29 -59.129999999999995 194.29 -59.129999999999995 M 206.29 -53.129999999999995 m -1, 0 a 1,1 0 1,0 2,0 a 1,1 0 1,0 -2,0 M 206.29 -53.129999999999995 m -0.5, 0 a 0.5,0.5 0 1,0 1,0 a 0.5,0.5 0 1,0 -1,0  M206.29 -53.129999999999995 L206.29 -53.129999999999995 199.29 -59.129999999999995 206.29 -65.13 M 206.29 -65.13 m -1, 0 a 1,1 0 1,0 2,0 a 1,1 0 1,0 -2,0 M 206.29 -65.13 m -0.5, 0 a 0.5,0.5 0 1,0 1,0 a 0.5,0.5 0 1,0 -1,0  M194.29 -59.129999999999995 Q 178.95 -59.129999999999995, 163.6 -93.84 T 132.91 -128.56 M 120.91 -128.56 m -1, 0 a 1,1 0 1,0 2,0 a 1,1 0 1,0 -2,0 M 120.91 -128.56 m -0.5, 0 a 0.5,0.5 0 1,0 1,0 a 0.5,0.5 0 1,0 -1,0  M120.91 -128.56 L120.91 -128.56 132.91 -128.56 M126.91 -122.56 L126.91 -122.56 126.91 -134.56" id="h3353060187" class="r"></path><path d="M 207.5 128.16 m -1, 0 a 1,1 0 1,0 2,0 a 1,1 0 1,0 -2,0 M 207.5 128.16 m -0.5, 0 a 0.5,0.5 0 1,0 1,0 a 0.5,0.5 0 1,0 -1,0  M207.5 128.16 L207.5 128.16 200.5 128.16 M 207.5 134.16 m -1, 0 a 1,1 0 1,0 2,0 a 1,1 0 1,0 -2,0 M 207.5 134.16 m -0.5, 0 a 0.5,0.5 0 1,0 1,0 a 0.5,0.5 0 1,0 -1,0  M207.5 134.16 L207.5 134.16 200.5 128.16 207.5 122.16 M 207.5 122.16 m -1, 0 a 1,1 0 1,0 2,0 a 1,1 0 1,0 -2,0 M 207.5 122.16 m -0.5, 0 a 0.5,0.5 0 1,0 1,0 a 0.5,0.5 0 1,0 -1,0  M 198 128.16 m -2.5, 0 a 2.5,2.5 0 1,0 5,0 a 2.5,2.5 0 1,0 -5,0 M195.5 128.16 Q 179.86 128.16, 164.21 -0.2 T 132.91 -128.56 M 120.91 -128.56 m -1, 0 a 1,1 0 1,0 2,0 a 1,1 0 1,0 -2,0 M 120.91 -128.56 m -0.5, 0 a 0.5,0.5 0 1,0 1,0 a 0.5,0.5 0 1,0 -1,0  M120.91 -128.56 L120.91 -128.56 132.91 -128.56 M126.91 -122.56 L126.91 -122.56 126.91 -134.56" id="h2521388377" class="r"></path><path d="M 439.33 133.39 m -1, 0 a 1,1 0 1,0 2,0 a 1,1 0 1,0 -2,0 M 439.33 133.39 m -0.5, 0 a 0.5,0.5 0 1,0 1,0 a 0.5,0.5 0 1,0 -1,0  M439.33 133.39 L439.33 133.39 432.33 133.39 M 439.33 139.39 m -1, 0 a 1,1 0 1,0 2,0 a 1,1 0 1,0 -2,0 M 439.33 139.39 m -0.5, 0 a 0.5,0.5 0 1,0 1,0 a 0.5,0.5 0 1,0 -1,0  M439.33 139.39 L439.33 139.39 432.33 133.39 439.33 127.38999999999999 M 439.33 127.38999999999999 m -1, 0 a 1,1 0 1,0 2,0 a 1,1 0 1,0 -2,0 M 439.33 127.38999999999999 m -0.5, 0 a 0.5,0.5 0 1,0 1,0 a 0.5,0.5 0 1,0 -1,0  M 429.83 133.39 m -2.5, 0 a 2.5,2.5 0 1,0 5,0 a 2.5,2.5 0 1,0 -5,0 M427.33 133.39 Q 412.06 133.39, 396.79 118.28 T 366.24 103.16 M 354.24 103.16 m -1, 0 a 1,1 0 1,0 2,0 a 1,1 0 1,0 -2,0 M 354.24 103.16 m -0.5, 0 a 0.5,0.5 0 1,0 1,0 a 0.5,0.5 0 1,0 -1,0  M354.24 103.16 L354.24 103.16 366.24 103.16 M360.24 109.16 L360.24 109.16 360.24 97.16" id="h3462194952" class="r"></path></g><g class="hrs"></g><g class="ts"><svg width="166.94" height="175" x="-340.54" y="-188.35" id="h1507136116" class="t"><rect height="40" width="166.94" class="th"></rect><text x="13" y="25" class="tht">Group</text><rect height="135" width="166.94" class="t-bg"></rect><text x="13" y="61" class="tf pk">id<tspan x="153.94" class="ty">uuid</tspan></text><path d="M7,14A2,2 0 0,1 5,12A2,2 0 0,1 7,10A2,2 0 0,1 9,12A2,2 0 0,1 7,14M12.65,10C11.83,7.67 9.61,6 7, 6A6, 6 0 0, 0 1, 12A6, 6 0 0, 0 7, 18C9.61, 18 11.83, 16.33 12.65, 14H17V18H21V14H23V10H12.65Z" class="i pk" transform="translate(111.2525, 48) scale(0.65)"></path><text x="13" y="86" class="tf">name<tspan x="153.94" class="ty">varchar(100)</tspan></text><text x="13" y="111" class="tf">startDateTime<tspan x="153.94" class="ty">datetime</tspan></text><text x="13" y="136" class="tf">createdAt<tspan x="153.94" class="ty">datetime</tspan></text><text x="13" y="161" class="tf">updatedAt<tspan x="153.94" class="ty">datetime</tspan></text></svg><svg width="146.74" height="175" x="-321.12" y="10.23" id="h3965530264" class="t"><rect height="40" width="146.74" class="th"></rect><text x="13" y="25" class="tht">Group_Student</text><rect height="135" width="146.74" class="t-bg"></rect><text x="13" y="61" class="tf fk">groupId<tspan x="133.74" class="ty">string</tspan></text><text x="13" y="86" class="tf fk">studentId<tspan x="133.74" class="ty">string</tspan></text><text x="13" y="111" class="tf">enrolled<tspan x="133.74" class="ty">boolean</tspan></text><text x="13" y="136" class="tf">createdAt<tspan x="133.74" class="ty">datetime</tspan></text><text x="13" y="161" class="tf">updatedAt<tspan x="133.74" class="ty">datetime</tspan></text></svg><svg width="180.07" height="275" x="-59.16" y="-185.56" id="h2268466501" class="t"><rect height="40" width="180.07" class="th"></rect><text x="13" y="25" class="tht">Student</text><rect height="235" width="180.07" class="t-bg"></rect><text x="13" y="61" class="tf pk">id<tspan x="167.07" class="ty">uuid</tspan></text><path d="M7,14A2,2 0 0,1 5,12A2,2 0 0,1 7,10A2,2 0 0,1 9,12A2,2 0 0,1 7,14M12.65,10C11.83,7.67 9.61,6 7, 6A6, 6 0 0, 0 1, 12A6, 6 0 0, 0 7, 18C9.61, 18 11.83, 16.33 12.65, 14H17V18H21V14H23V10H12.65Z" class="i pk" transform="translate(124.3825, 48) scale(0.65)"></path><text x="13" y="86" class="tf">firstName<tspan x="167.07" class="ty">varchar(50)</tspan></text><text x="13" y="111" class="tf">lastName<tspan x="167.07" class="ty">varchar(50)</tspan></text><text x="13" y="136" class="tf">email<tspan x="167.07" class="ty">varchar(120)</tspan></text><path d="M22,18V22H18V19H15V16H12L9.74,13.74C9.19,13.91 8.61,14 8,14A6,6 0 0,1 2,8A6,6 0 0,1 8,2A6,6 0 0,1 14,8C14,8.61 13.91, 9.19 13.74, 9.74L22, 18M7, 5A2, 2 0 0, 0 5, 7A2, 2 0 0, 0 7, 9A2, 2 0 0, 0 9, 7A2, 2 0 0, 0 7, 5Z" class="i uq" transform="translate(83.04265625, 125.5) scale(0.5)"></path><text x="13" y="161" class="tf">password<tspan x="167.07" class="ty">(hashed/salted)</tspan></text><text x="13" y="186" class="tf">sex<tspan x="167.07" class="ty">enum</tspan></text><text x="13" y="211" class="tf">birthDate<tspan x="167.07" class="ty">datetime</tspan></text><text x="13" y="236" class="tf">createAt<tspan x="167.07" class="ty">datetime</tspan></text><text x="13" y="261" class="tf">updatedAt<tspan x="167.07" class="ty">datetime</tspan></text></svg><svg width="146.74" height="200" x="206.29" y="-191.13" id="h3571718501" class="t"><rect height="40" width="146.74" class="th"></rect><text x="13" y="25" class="tht">Log</text><rect height="160" width="146.74" class="t-bg"></rect><text x="13" y="61" class="tf pk">id<tspan x="133.74" class="ty">uuid</tspan></text><path d="M7,14A2,2 0 0,1 5,12A2,2 0 0,1 7,10A2,2 0 0,1 9,12A2,2 0 0,1 7,14M12.65,10C11.83,7.67 9.61,6 7, 6A6, 6 0 0, 0 1, 12A6, 6 0 0, 0 7, 18C9.61, 18 11.83, 16.33 12.65, 14H17V18H21V14H23V10H12.65Z" class="i pk" transform="translate(91.05250000000001, 48) scale(0.65)"></path><text x="13" y="86" class="tf">pounds<tspan x="133.74" class="ty">float</tspan></text><text x="13" y="111" class="tf">difference<tspan x="133.74" class="ty">float</tspan></text><text x="13" y="136" class="tf fk">studentId<tspan x="133.74" class="ty">string</tspan></text><text x="13" y="161" class="tf">createdAt<tspan x="133.74" class="ty">datetime</tspan></text><text x="13" y="186" class="tf">updatedAt<tspan x="133.74" class="ty">datetime</tspan></text></svg><svg width="146.74" height="200" x="207.5" y="46.16" id="h2005482782" class="t"><rect height="40" width="146.74" class="th"></rect><text x="13" y="25" class="tht">Invoice</text><rect height="160" width="146.74" class="t-bg"></rect><text x="13" y="61" class="tf pk">id<tspan x="133.74" class="ty">uuid</tspan></text><path d="M7,14A2,2 0 0,1 5,12A2,2 0 0,1 7,10A2,2 0 0,1 9,12A2,2 0 0,1 7,14M12.65,10C11.83,7.67 9.61,6 7, 6A6, 6 0 0, 0 1, 12A6, 6 0 0, 0 7, 18C9.61, 18 11.83, 16.33 12.65, 14H17V18H21V14H23V10H12.65Z" class="i pk" transform="translate(91.05250000000001, 48) scale(0.65)"></path><text x="13" y="86" class="tf fk">sutdentId<tspan x="133.74" class="ty">string</tspan></text><text x="13" y="111" class="tf">amount<tspan x="133.74" class="ty">float</tspan></text><text x="13" y="136" class="tf">status<tspan x="133.74" class="ty">enum</tspan></text><text x="13" y="161" class="tf">createdAt<tspan x="133.74" class="ty">datetime</tspan></text><text x="13" y="186" class="tf">updatedAt<tspan x="133.74" class="ty">datetime</tspan></text></svg><svg width="146.74" height="200" x="439.33" y="51.39" id="h79873455" class="t"><rect height="40" width="146.74" class="th"></rect><text x="13" y="25" class="tht">Payment</text><rect height="160" width="146.74" class="t-bg"></rect><text x="13" y="61" class="tf pk">id<tspan x="133.74" class="ty">uuid</tspan></text><path d="M7,14A2,2 0 0,1 5,12A2,2 0 0,1 7,10A2,2 0 0,1 9,12A2,2 0 0,1 7,14M12.65,10C11.83,7.67 9.61,6 7, 6A6, 6 0 0, 0 1, 12A6, 6 0 0, 0 7, 18C9.61, 18 11.83, 16.33 12.65, 14H17V18H21V14H23V10H12.65Z" class="i pk" transform="translate(91.05250000000001, 48) scale(0.65)"></path><text x="13" y="86" class="tf fk">invoiceId<tspan x="133.74" class="ty">string</tspan></text><text x="13" y="111" class="tf">amount<tspan x="133.74" class="ty">float</tspan></text><text x="13" y="136" class="tf">method<tspan x="133.74" class="ty">enum</tspan></text><text x="13" y="161" class="tf">createdAt<tspan x="133.74" class="ty">datetime</tspan></text><text x="13" y="186" class="tf">updatedAt<tspan x="133.74" class="ty">datetime</tspan></text></svg></g></g><text class="qdbd-link" x="10" y="20">www.quickdatabasediagrams.com</text></svg>