<svg class="diagram-root" style="background: #f5f6f6" xmlns="http://www.w3.org/2000/svg" xmlns:xlink="http://www.w3.org/1999/xlink"><style>.diagram-root { font-family: "Helvetica Neue", sans-serif; font-size: 12px; } .t { overflow: visible; } .t-bg { y: 40; fill: #fff;   } .th { fill: #005aa0;   } .tht { fill: #fff; font-size: 14px;  } .tf { fill: #323c46; overflow: visible; } .tf.pk { fill: #005aa0; font-weight: bold; } .tf.fk { font-weight: bold; } .ty { fill: #adb1b5; font-weight: normal; text-anchor: end; } .r { fill: transparent; stroke: #c3c3c3; stroke-width: 1; } .l { stroke: 1; } .i { fill: #c2c7ce; stroke: #c2c7ce; } .i.ix { fill: #afb3b6; stroke: #000; } .fa { fill: transparent; overflow: visible; } .fa .bg.hover { fill: #f7f7f7; } .c { cy: 12; r: 4; stroke: #d2d2dc; fill: #d2d2dc; } .hr { fill: transparent; stroke: #323c46; stroke-opacity: 0.035; stroke-width: 13; } .dc { stroke: #fa5a3c; fill: #fa5a3c; } .x { stroke: white; stroke-width: 1; } .hl .th { fill: #1b9bff; } .hl .tht {  } .fhl .bg { fill: #e7f4ff; } .fhls .bg {  } .r.hl { stroke: #1b9bff; } .dim { opacity: 0.25; }</style><g class="drawing-wrapper" transform="translate(362.54444444444425, 221.13) scale(1,1)"><g class="rs"><path d="M -173.6 -131.35 m -1, 0 a 1,1 0 1,0 2,0 a 1,1 0 1,0 -2,0 M -173.6 -131.35 m -0.5, 0 a 0.5,0.5 0 1,0 1,0 a 0.5,0.5 0 1,0 -1,0  M-173.6 -131.35 L-173.6 -131.35 -161.6 -131.35 M-167.6 -125.35 L-167.6 -125.35 -167.6 -137.35 M-161.6 -131.35 C -111.6 -131.35, -111.13199999999999 67.23, -162.38 67.23 M -174.38 67.23 m -1, 0 a 1,1 0 1,0 2,0 a 1,1 0 1,0 -2,0 M -174.38 67.23 m -0.5, 0 a 0.5,0.5 0 1,0 1,0 a 0.5,0.5 0 1,0 -1,0  M-174.38 67.23 L-174.38 67.23 -162.38 67.23 M -174.38 73.23 m -1, 0 a 1,1 0 1,0 2,0 a 1,1 0 1,0 -2,0 M -174.38 73.23 m -0.5, 0 a 0.5,0.5 0 1,0 1,0 a 0.5,0.5 0 1,0 -1,0  M-174.38 73.23 L-174.38 73.23 -167.38 67.23 -174.38 61.230000000000004 M -174.38 61.230000000000004 m -1, 0 a 1,1 0 1,0 2,0 a 1,1 0 1,0 -2,0 M -174.38 61.230000000000004 m -0.5, 0 a 0.5,0.5 0 1,0 1,0 a 0.5,0.5 0 1,0 -1,0 " id="h3708581855" class="r"></path><path d="M -41.66 -129.81 m -1, 0 a 1,1 0 1,0 2,0 a 1,1 0 1,0 -2,0 M -41.66 -129.81 m -0.5, 0 a 0.5,0.5 0 1,0 1,0 a 0.5,0.5 0 1,0 -1,0  M-41.66 -129.81 L-41.66 -129.81 -53.66 -129.81 M-47.66 -123.81 L-47.66 -123.81 -47.66 -135.81 M-53.66 -129.81 Q -80.84 -129.81, -108.02 -18.79 T -162.38 92.23 M -174.38 92.23 m -1, 0 a 1,1 0 1,0 2,0 a 1,1 0 1,0 -2,0 M -174.38 92.23 m -0.5, 0 a 0.5,0.5 0 1,0 1,0 a 0.5,0.5 0 1,0 -1,0  M-174.38 92.23 L-174.38 92.23 -162.38 92.23 M -174.38 98.23 m -1, 0 a 1,1 0 1,0 2,0 a 1,1 0 1,0 -2,0 M -174.38 98.23 m -0.5, 0 a 0.5,0.5 0 1,0 1,0 a 0.5,0.5 0 1,0 -1,0  M-174.38 98.23 L-174.38 98.23 -167.38 92.23 -174.38 86.23 M -174.38 86.23 m -1, 0 a 1,1 0 1,0 2,0 a 1,1 0 1,0 -2,0 M -174.38 86.23 m -0.5, 0 a 0.5,0.5 0 1,0 1,0 a 0.5,0.5 0 1,0 -1,0 " id="h2288525087" class="r"></path><path d="M 252.54000000000002 -59.129999999999995 m -1, 0 a 1,1 0 1,0 2,0 a 1,1 0 1,0 -2,0 M 252.54000000000002 -59.129999999999995 m -0.5, 0 a 0.5,0.5 0 1,0 1,0 a 0.5,0.5 0 1,0 -1,0  M252.54000000000002 -59.129999999999995 L252.54000000000002 -59.129999999999995 240.54000000000002 -59.129999999999995 M 252.54000000000002 -53.129999999999995 m -1, 0 a 1,1 0 1,0 2,0 a 1,1 0 1,0 -2,0 M 252.54000000000002 -53.129999999999995 m -0.5, 0 a 0.5,0.5 0 1,0 1,0 a 0.5,0.5 0 1,0 -1,0  M252.54000000000002 -53.129999999999995 L252.54000000000002 -53.129999999999995 245.54000000000002 -59.129999999999995 252.54000000000002 -65.13 M 252.54000000000002 -65.13 m -1, 0 a 1,1 0 1,0 2,0 a 1,1 0 1,0 -2,0 M 252.54000000000002 -65.13 m -0.5, 0 a 0.5,0.5 0 1,0 1,0 a 0.5,0.5 0 1,0 -1,0  M240.54000000000002 -59.129999999999995 Q 218.01 -59.129999999999995, 195.48 -94.47 T 150.41 -129.81 M 138.41 -129.81 m -1, 0 a 1,1 0 1,0 2,0 a 1,1 0 1,0 -2,0 M 138.41 -129.81 m -0.5, 0 a 0.5,0.5 0 1,0 1,0 a 0.5,0.5 0 1,0 -1,0  M138.41 -129.81 L138.41 -129.81 150.41 -129.81 M144.41 -123.81 L144.41 -123.81 144.41 -135.81" id="h3353060187" class="r"></path><path d="M 255 129.41 m -1, 0 a 1,1 0 1,0 2,0 a 1,1 0 1,0 -2,0 M 255 129.41 m -0.5, 0 a 0.5,0.5 0 1,0 1,0 a 0.5,0.5 0 1,0 -1,0  M255 129.41 L255 129.41 248 129.41 M 255 135.41 m -1, 0 a 1,1 0 1,0 2,0 a 1,1 0 1,0 -2,0 M 255 135.41 m -0.5, 0 a 0.5,0.5 0 1,0 1,0 a 0.5,0.5 0 1,0 -1,0  M255 135.41 L255 135.41 248 129.41 255 123.41 M 255 123.41 m -1, 0 a 1,1 0 1,0 2,0 a 1,1 0 1,0 -2,0 M 255 123.41 m -0.5, 0 a 0.5,0.5 0 1,0 1,0 a 0.5,0.5 0 1,0 -1,0  M 245.5 129.41 m -2.5, 0 a 2.5,2.5 0 1,0 5,0 a 2.5,2.5 0 1,0 -5,0 M243 129.41 Q 219.86 129.41, 196.71 -0.2 T 150.41 -129.81 M 138.41 -129.81 m -1, 0 a 1,1 0 1,0 2,0 a 1,1 0 1,0 -2,0 M 138.41 -129.81 m -0.5, 0 a 0.5,0.5 0 1,0 1,0 a 0.5,0.5 0 1,0 -1,0  M138.41 -129.81 L138.41 -129.81 150.41 -129.81 M144.41 -123.81 L144.41 -123.81 144.41 -135.81" id="h2521388377" class="r"></path><path d="M 501.83000000000004 132.14 m -1, 0 a 1,1 0 1,0 2,0 a 1,1 0 1,0 -2,0 M 501.83000000000004 132.14 m -0.5, 0 a 0.5,0.5 0 1,0 1,0 a 0.5,0.5 0 1,0 -1,0  M501.83000000000004 132.14 L501.83000000000004 132.14 494.83000000000004 132.14 M 501.83000000000004 138.14 m -1, 0 a 1,1 0 1,0 2,0 a 1,1 0 1,0 -2,0 M 501.83000000000004 138.14 m -0.5, 0 a 0.5,0.5 0 1,0 1,0 a 0.5,0.5 0 1,0 -1,0  M501.83000000000004 138.14 L501.83000000000004 138.14 494.83000000000004 132.14 501.83000000000004 126.13999999999999 M 501.83000000000004 126.13999999999999 m -1, 0 a 1,1 0 1,0 2,0 a 1,1 0 1,0 -2,0 M 501.83000000000004 126.13999999999999 m -0.5, 0 a 0.5,0.5 0 1,0 1,0 a 0.5,0.5 0 1,0 -1,0  M 492.33000000000004 132.14 m -2.5, 0 a 2.5,2.5 0 1,0 5,0 a 2.5,2.5 0 1,0 -5,0 M489.83000000000004 132.14 Q 470.81 132.14, 451.79 118.28 T 413.74 104.41 M 401.74 104.41 m -1, 0 a 1,1 0 1,0 2,0 a 1,1 0 1,0 -2,0 M 401.74 104.41 m -0.5, 0 a 0.5,0.5 0 1,0 1,0 a 0.5,0.5 0 1,0 -1,0  M401.74 104.41 L401.74 104.41 413.74 104.41 M407.74 110.41 L407.74 110.41 407.74 98.41" id="h3462194952" class="r"></path></g><g class="hrs"></g><g class="ts"><svg width="166.94" height="175" x="-340.54" y="-188.35" id="h1507136116" class="t"><rect height="40" width="166.94" class="th"></rect><text x="13" y="25" class="tht">Group</text><rect height="135" width="166.94" class="t-bg"></rect><text x="13" y="61" class="tf pk">id<tspan x="153.94" class="ty">uuid</tspan></text><path d="M7,14A2,2 0 0,1 5,12A2,2 0 0,1 7,10A2,2 0 0,1 9,12A2,2 0 0,1 7,14M12.65,10C11.83,7.67 9.61,6 7, 6A6, 6 0 0, 0 1, 12A6, 6 0 0, 0 7, 18C9.61, 18 11.83, 16.33 12.65, 14H17V18H21V14H23V10H12.65Z" class="i pk" transform="translate(111.2525, 48) scale(0.65)"></path><text x="13" y="86" class="tf">name<tspan x="153.94" class="ty">varchar(100)</tspan></text><text x="13" y="111" class="tf">startDateTime<tspan x="153.94" class="ty">datetime</tspan></text><text x="13" y="136" class="tf">createdAt<tspan x="153.94" class="ty">datetime</tspan></text><text x="13" y="161" class="tf">updatedAt<tspan x="153.94" class="ty">datetime</tspan></text></svg><svg width="146.74" height="175" x="-321.12" y="10.23" id="h3965530264" class="t"><rect height="40" width="146.74" class="th"></rect><text x="13" y="25" class="tht">Group_Student</text><rect height="135" width="146.74" class="t-bg"></rect><text x="13" y="61" class="tf fk">groupId<tspan x="133.74" class="ty">string</tspan></text><text x="13" y="86" class="tf fk">studentId<tspan x="133.74" class="ty">string</tspan></text><text x="13" y="111" class="tf">enrolled<tspan x="133.74" class="ty">boolean</tspan></text><text x="13" y="136" class="tf">createdAt<tspan x="133.74" class="ty">datetime</tspan></text><text x="13" y="161" class="tf">updatedAt<tspan x="133.74" class="ty">datetime</tspan></text></svg><svg width="180.07" height="275" x="-41.66" y="-186.81" id="h2268466501" class="t"><rect height="40" width="180.07" class="th"></rect><text x="13" y="25" class="tht">Student</text><rect height="235" width="180.07" class="t-bg"></rect><text x="13" y="61" class="tf pk">id<tspan x="167.07" class="ty">int</tspan></text><path d="M7,14A2,2 0 0,1 5,12A2,2 0 0,1 7,10A2,2 0 0,1 9,12A2,2 0 0,1 7,14M12.65,10C11.83,7.67 9.61,6 7, 6A6, 6 0 0, 0 1, 12A6, 6 0 0, 0 7, 18C9.61, 18 11.83, 16.33 12.65, 14H17V18H21V14H23V10H12.65Z" class="i pk" transform="translate(134.396171875, 48) scale(0.65)"></path><text x="13" y="86" class="tf">firstName<tspan x="167.07" class="ty">varchar(50)</tspan></text><text x="13" y="111" class="tf">lastName<tspan x="167.07" class="ty">varchar(50)</tspan></text><text x="13" y="136" class="tf">email<tspan x="167.07" class="ty">varchar(120)</tspan></text><path d="M22,18V22H18V19H15V16H12L9.74,13.74C9.19,13.91 8.61,14 8,14A6,6 0 0,1 2,8A6,6 0 0,1 8,2A6,6 0 0,1 14,8C14,8.61 13.91, 9.19 13.74, 9.74L22, 18M7, 5A2, 2 0 0, 0 5, 7A2, 2 0 0, 0 7, 9A2, 2 0 0, 0 9, 7A2, 2 0 0, 0 7, 5Z" class="i uq" transform="translate(83.04265625, 125.5) scale(0.5)"></path><text x="13" y="161" class="tf">password<tspan x="167.07" class="ty">(hashed/salted)</tspan></text><text x="13" y="186" class="tf">sex<tspan x="167.07" class="ty">enum</tspan></text><text x="13" y="211" class="tf">birthDate<tspan x="167.07" class="ty">datetime</tspan></text><text x="13" y="236" class="tf">createAt<tspan x="167.07" class="ty">datetime</tspan></text><text x="13" y="261" class="tf">updatedAt<tspan x="167.07" class="ty">datetime</tspan></text></svg><svg width="146.74" height="200" x="252.54000000000002" y="-191.13" id="h3571718501" class="t"><rect height="40" width="146.74" class="th"></rect><text x="13" y="25" class="tht">Log</text><rect height="160" width="146.74" class="t-bg"></rect><text x="13" y="61" class="tf pk">id<tspan x="133.74" class="ty">int</tspan></text><path d="M7,14A2,2 0 0,1 5,12A2,2 0 0,1 7,10A2,2 0 0,1 9,12A2,2 0 0,1 7,14M12.65,10C11.83,7.67 9.61,6 7, 6A6, 6 0 0, 0 1, 12A6, 6 0 0, 0 7, 18C9.61, 18 11.83, 16.33 12.65, 14H17V18H21V14H23V10H12.65Z" class="i pk" transform="translate(101.06617187500001, 48) scale(0.65)"></path><text x="13" y="86" class="tf">pounds<tspan x="133.74" class="ty">float</tspan></text><text x="13" y="111" class="tf">difference<tspan x="133.74" class="ty">float</tspan></text><text x="13" y="136" class="tf fk">studentId<tspan x="133.74" class="ty">int</tspan></text><text x="13" y="161" class="tf">createdAt<tspan x="133.74" class="ty">datetime</tspan></text><text x="13" y="186" class="tf">updatedAt<tspan x="133.74" class="ty">datetime</tspan></text></svg><svg width="146.74" height="200" x="255" y="47.41" id="h2005482782" class="t"><rect height="40" width="146.74" class="th"></rect><text x="13" y="25" class="tht">Invoice</text><rect height="160" width="146.74" class="t-bg"></rect><text x="13" y="61" class="tf pk">id<tspan x="133.74" class="ty">int</tspan></text><path d="M7,14A2,2 0 0,1 5,12A2,2 0 0,1 7,10A2,2 0 0,1 9,12A2,2 0 0,1 7,14M12.65,10C11.83,7.67 9.61,6 7, 6A6, 6 0 0, 0 1, 12A6, 6 0 0, 0 7, 18C9.61, 18 11.83, 16.33 12.65, 14H17V18H21V14H23V10H12.65Z" class="i pk" transform="translate(101.06617187500001, 48) scale(0.65)"></path><text x="13" y="86" class="tf fk">sutdentId<tspan x="133.74" class="ty">int</tspan></text><text x="13" y="111" class="tf">amount<tspan x="133.74" class="ty">float</tspan></text><text x="13" y="136" class="tf">status<tspan x="133.74" class="ty">enum</tspan></text><text x="13" y="161" class="tf">createdAt<tspan x="133.74" class="ty">datetime</tspan></text><text x="13" y="186" class="tf">updatedAt<tspan x="133.74" class="ty">datetime</tspan></text></svg><svg width="146.74" height="200" x="501.83000000000004" y="50.14" id="h79873455" class="t"><rect height="40" width="146.74" class="th"></rect><text x="13" y="25" class="tht">Payment</text><rect height="160" width="146.74" class="t-bg"></rect><text x="13" y="61" class="tf pk">id<tspan x="133.74" class="ty">int</tspan></text><path d="M7,14A2,2 0 0,1 5,12A2,2 0 0,1 7,10A2,2 0 0,1 9,12A2,2 0 0,1 7,14M12.65,10C11.83,7.67 9.61,6 7, 6A6, 6 0 0, 0 1, 12A6, 6 0 0, 0 7, 18C9.61, 18 11.83, 16.33 12.65, 14H17V18H21V14H23V10H12.65Z" class="i pk" transform="translate(101.06617187500001, 48) scale(0.65)"></path><text x="13" y="86" class="tf fk">invoiceId<tspan x="133.74" class="ty">int</tspan></text><text x="13" y="111" class="tf">amount<tspan x="133.74" class="ty">float</tspan></text><text x="13" y="136" class="tf">method<tspan x="133.74" class="ty">enum</tspan></text><text x="13" y="161" class="tf">createdAt<tspan x="133.74" class="ty">datetime</tspan></text><text x="13" y="186" class="tf">updatedAt<tspan x="133.74" class="ty">datetime</tspan></text></svg></g></g><text class="qdbd-link" x="10" y="20">www.quickdatabasediagrams.com</text></svg>