<svg class="diagram-root" style="background: #f5f6f6" xmlns="http://www.w3.org/2000/svg" xmlns:xlink="http://www.w3.org/1999/xlink"><style>.diagram-root { font-family: "Helvetica Neue", sans-serif; font-size: 12px; } .t { overflow: visible; } .t-bg { y: 40; fill: #fff;   } .th { fill: #005aa0;   } .tht { fill: #fff; font-size: 14px;  } .tf { fill: #323c46; overflow: visible; } .tf.pk { fill: #005aa0; font-weight: bold; } .tf.fk { font-weight: bold; } .ty { fill: #adb1b5; font-weight: normal; text-anchor: end; } .r { fill: transparent; stroke: #c3c3c3; stroke-width: 1; } .l { stroke: 1; } .i { fill: #c2c7ce; stroke: #c2c7ce; } .i.ix { fill: #afb3b6; stroke: #000; } .fa { fill: transparent; overflow: visible; } .fa .bg.hover { fill: #f7f7f7; } .c { cy: 12; r: 4; stroke: #d2d2dc; fill: #d2d2dc; } .hr { fill: transparent; stroke: #323c46; stroke-opacity: 0.035; stroke-width: 13; } .dc { stroke: #fa5a3c; fill: #fa5a3c; } .x { stroke: white; stroke-width: 1; } .hl .th { fill: #1b9bff; } .hl .tht {  } .fhl .bg { fill: #e7f4ff; } .fhls .bg {  } .r.hl { stroke: #1b9bff; } .dim { opacity: 0.25; }</style><g class="drawing-wrapper" transform="translate(358.0966666666664, 217.92333333333312) scale(1,1)"><g class="rs"><path d="M -336.1 -130.24 m -1, 0 a 1,1 0 1,0 2,0 a 1,1 0 1,0 -2,0 M -336.1 -130.24 m -0.5, 0 a 0.5,0.5 0 1,0 1,0 a 0.5,0.5 0 1,0 -1,0  M-336.1 -130.24 L-336.1 -130.24 -348.1 -130.24 M-342.1 -124.24000000000001 L-342.1 -124.24000000000001 -342.1 -136.24 M-348.1 -130.24 C -398.1 -130.24, -398.502 80.56, -347.43 80.56 M -335.43 80.56 m -1, 0 a 1,1 0 1,0 2,0 a 1,1 0 1,0 -2,0 M -335.43 80.56 m -0.5, 0 a 0.5,0.5 0 1,0 1,0 a 0.5,0.5 0 1,0 -1,0  M-335.43 80.56 L-335.43 80.56 -347.43 80.56 M -335.43 86.56 m -1, 0 a 1,1 0 1,0 2,0 a 1,1 0 1,0 -2,0 M -335.43 86.56 m -0.5, 0 a 0.5,0.5 0 1,0 1,0 a 0.5,0.5 0 1,0 -1,0  M-335.43 86.56 L-335.43 86.56 -342.43 80.56 -335.43 74.56 M -335.43 74.56 m -1, 0 a 1,1 0 1,0 2,0 a 1,1 0 1,0 -2,0 M -335.43 74.56 m -0.5, 0 a 0.5,0.5 0 1,0 1,0 a 0.5,0.5 0 1,0 -1,0 " id="h3708581855" class="r"></path><path d="M -82.22 -130.92 m -1, 0 a 1,1 0 1,0 2,0 a 1,1 0 1,0 -2,0 M -82.22 -130.92 m -0.5, 0 a 0.5,0.5 0 1,0 1,0 a 0.5,0.5 0 1,0 -1,0  M-82.22 -130.92 L-82.22 -130.92 -94.22 -130.92 M-88.22 -124.91999999999999 L-88.22 -124.91999999999999 -88.22 -136.92 M-94.22 -130.92 Q -114.83 -130.92, -135.45 -12.68 T -176.69 105.56 M -188.69 105.56 m -1, 0 a 1,1 0 1,0 2,0 a 1,1 0 1,0 -2,0 M -188.69 105.56 m -0.5, 0 a 0.5,0.5 0 1,0 1,0 a 0.5,0.5 0 1,0 -1,0  M-188.69 105.56 L-188.69 105.56 -176.69 105.56 M -188.69 111.56 m -1, 0 a 1,1 0 1,0 2,0 a 1,1 0 1,0 -2,0 M -188.69 111.56 m -0.5, 0 a 0.5,0.5 0 1,0 1,0 a 0.5,0.5 0 1,0 -1,0  M-188.69 111.56 L-188.69 111.56 -181.69 105.56 -188.69 99.56 M -188.69 99.56 m -1, 0 a 1,1 0 1,0 2,0 a 1,1 0 1,0 -2,0 M -188.69 99.56 m -0.5, 0 a 0.5,0.5 0 1,0 1,0 a 0.5,0.5 0 1,0 -1,0 " id="h2288525087" class="r"></path><path d="M 201.01 -52.46000000000001 m -1, 0 a 1,1 0 1,0 2,0 a 1,1 0 1,0 -2,0 M 201.01 -52.46000000000001 m -0.5, 0 a 0.5,0.5 0 1,0 1,0 a 0.5,0.5 0 1,0 -1,0  M201.01 -52.46000000000001 L201.01 -52.46000000000001 189.01 -52.46000000000001 M 201.01 -46.46000000000001 m -1, 0 a 1,1 0 1,0 2,0 a 1,1 0 1,0 -2,0 M 201.01 -46.46000000000001 m -0.5, 0 a 0.5,0.5 0 1,0 1,0 a 0.5,0.5 0 1,0 -1,0  M201.01 -46.46000000000001 L201.01 -46.46000000000001 194.01 -52.46000000000001 201.01 -58.46000000000001 M 201.01 -58.46000000000001 m -1, 0 a 1,1 0 1,0 2,0 a 1,1 0 1,0 -2,0 M 201.01 -58.46000000000001 m -0.5, 0 a 0.5,0.5 0 1,0 1,0 a 0.5,0.5 0 1,0 -1,0  M189.01 -52.46000000000001 Q 169.22 -52.46000000000001, 149.43 -91.69 T 109.85 -130.92 M 97.85 -130.92 m -1, 0 a 1,1 0 1,0 2,0 a 1,1 0 1,0 -2,0 M 97.85 -130.92 m -0.5, 0 a 0.5,0.5 0 1,0 1,0 a 0.5,0.5 0 1,0 -1,0  M97.85 -130.92 L97.85 -130.92 109.85 -130.92 M103.85 -124.91999999999999 L103.85 -124.91999999999999 103.85 -136.92" id="h3353060187" class="r"></path><path d="M 200.14 125.1 m -1, 0 a 1,1 0 1,0 2,0 a 1,1 0 1,0 -2,0 M 200.14 125.1 m -0.5, 0 a 0.5,0.5 0 1,0 1,0 a 0.5,0.5 0 1,0 -1,0  M200.14 125.1 L200.14 125.1 193.14 125.1 M 200.14 131.1 m -1, 0 a 1,1 0 1,0 2,0 a 1,1 0 1,0 -2,0 M 200.14 131.1 m -0.5, 0 a 0.5,0.5 0 1,0 1,0 a 0.5,0.5 0 1,0 -1,0  M200.14 131.1 L200.14 131.1 193.14 125.1 200.14 119.1 M 200.14 119.1 m -1, 0 a 1,1 0 1,0 2,0 a 1,1 0 1,0 -2,0 M 200.14 119.1 m -0.5, 0 a 0.5,0.5 0 1,0 1,0 a 0.5,0.5 0 1,0 -1,0  M 190.64 125.1 m -2.5, 0 a 2.5,2.5 0 1,0 5,0 a 2.5,2.5 0 1,0 -5,0 M188.14 125.1 Q 168.57 125.1, 149 -2.91 T 109.85 -130.92 M 97.85 -130.92 m -1, 0 a 1,1 0 1,0 2,0 a 1,1 0 1,0 -2,0 M 97.85 -130.92 m -0.5, 0 a 0.5,0.5 0 1,0 1,0 a 0.5,0.5 0 1,0 -1,0  M97.85 -130.92 L97.85 -130.92 109.85 -130.92 M103.85 -124.91999999999999 L103.85 -124.91999999999999 103.85 -136.92" id="h2521388377" class="r"></path><path d="M 437.52 125.33 m -1, 0 a 1,1 0 1,0 2,0 a 1,1 0 1,0 -2,0 M 437.52 125.33 m -0.5, 0 a 0.5,0.5 0 1,0 1,0 a 0.5,0.5 0 1,0 -1,0  M437.52 125.33 L437.52 125.33 430.52 125.33 M 437.52 131.32999999999998 m -1, 0 a 1,1 0 1,0 2,0 a 1,1 0 1,0 -2,0 M 437.52 131.32999999999998 m -0.5, 0 a 0.5,0.5 0 1,0 1,0 a 0.5,0.5 0 1,0 -1,0  M437.52 131.32999999999998 L437.52 131.32999999999998 430.52 125.33 437.52 119.33 M 437.52 119.33 m -1, 0 a 1,1 0 1,0 2,0 a 1,1 0 1,0 -2,0 M 437.52 119.33 m -0.5, 0 a 0.5,0.5 0 1,0 1,0 a 0.5,0.5 0 1,0 -1,0  M 428.02 125.33 m -2.5, 0 a 2.5,2.5 0 1,0 5,0 a 2.5,2.5 0 1,0 -5,0 M425.52 125.33 Q 408.03 125.33, 390.53 112.72 T 355.53 100.1 M 343.53 100.1 m -1, 0 a 1,1 0 1,0 2,0 a 1,1 0 1,0 -2,0 M 343.53 100.1 m -0.5, 0 a 0.5,0.5 0 1,0 1,0 a 0.5,0.5 0 1,0 -1,0  M343.53 100.1 L343.53 100.1 355.53 100.1 M349.53 106.1 L349.53 106.1 349.53 94.1" id="h3462194952" class="r"></path></g><g class="hrs"></g><g class="ts"><svg width="166.94" height="175" x="-336.1" y="-187.24" id="h1507136116" class="t"><rect height="40" width="166.94" class="th"></rect><text x="13" y="25" class="tht">Group</text><rect height="135" width="166.94" class="t-bg"></rect><text x="13" y="61" class="tf pk">id<tspan x="153.94" class="ty">uuid</tspan></text><path d="M7,14A2,2 0 0,1 5,12A2,2 0 0,1 7,10A2,2 0 0,1 9,12A2,2 0 0,1 7,14M12.65,10C11.83,7.67 9.61,6 7, 6A6, 6 0 0, 0 1, 12A6, 6 0 0, 0 7, 18C9.61, 18 11.83, 16.33 12.65, 14H17V18H21V14H23V10H12.65Z" class="i pk" transform="translate(111.2525, 48) scale(0.65)"></path><text x="13" y="86" class="tf">name<tspan x="153.94" class="ty">varchar(100)</tspan></text><text x="13" y="111" class="tf">startDateTime<tspan x="153.94" class="ty">datetime</tspan></text><text x="13" y="136" class="tf">createdAt<tspan x="153.94" class="ty">datetime</tspan></text><text x="13" y="161" class="tf">updatedAt<tspan x="153.94" class="ty">datetime</tspan></text></svg><svg width="146.74" height="175" x="-335.43" y="23.56" id="h3965530264" class="t"><rect height="40" width="146.74" class="th"></rect><text x="13" y="25" class="tht">Group_Student</text><rect height="135" width="146.74" class="t-bg"></rect><text x="13" y="61" class="tf fk">groupId<tspan x="133.74" class="ty">string</tspan></text><text x="13" y="86" class="tf fk">studentId<tspan x="133.74" class="ty">string</tspan></text><text x="13" y="111" class="tf">enrolled<tspan x="133.74" class="ty">boolean</tspan></text><text x="13" y="136" class="tf">createdAt<tspan x="133.74" class="ty">datetime</tspan></text><text x="13" y="161" class="tf">updatedAt<tspan x="133.74" class="ty">datetime</tspan></text></svg><svg width="180.07" height="275" x="-82.22" y="-187.92" id="h2268466501" class="t"><rect height="40" width="180.07" class="th"></rect><text x="13" y="25" class="tht">Student</text><rect height="235" width="180.07" class="t-bg"></rect><text x="13" y="61" class="tf pk">id<tspan x="167.07" class="ty">int</tspan></text><path d="M7,14A2,2 0 0,1 5,12A2,2 0 0,1 7,10A2,2 0 0,1 9,12A2,2 0 0,1 7,14M12.65,10C11.83,7.67 9.61,6 7, 6A6, 6 0 0, 0 1, 12A6, 6 0 0, 0 7, 18C9.61, 18 11.83, 16.33 12.65, 14H17V18H21V14H23V10H12.65Z" class="i pk" transform="translate(134.396171875, 48) scale(0.65)"></path><text x="13" y="86" class="tf">firstName<tspan x="167.07" class="ty">varchar(50)</tspan></text><text x="13" y="111" class="tf">lastName<tspan x="167.07" class="ty">varchar(50)</tspan></text><text x="13" y="136" class="tf">email<tspan x="167.07" class="ty">varchar(120)</tspan></text><path d="M22,18V22H18V19H15V16H12L9.74,13.74C9.19,13.91 8.61,14 8,14A6,6 0 0,1 2,8A6,6 0 0,1 8,2A6,6 0 0,1 14,8C14,8.61 13.91, 9.19 13.74, 9.74L22, 18M7, 5A2, 2 0 0, 0 5, 7A2, 2 0 0, 0 7, 9A2, 2 0 0, 0 9, 7A2, 2 0 0, 0 7, 5Z" class="i uq" transform="translate(83.04265625, 125.5) scale(0.5)"></path><text x="13" y="161" class="tf">password<tspan x="167.07" class="ty">(hashed/salted)</tspan></text><text x="13" y="186" class="tf">sex<tspan x="167.07" class="ty">enum</tspan></text><text x="13" y="211" class="tf">birthDate<tspan x="167.07" class="ty">datetime</tspan></text><text x="13" y="236" class="tf">createAt<tspan x="167.07" class="ty">datetime</tspan></text><text x="13" y="261" class="tf">updatedAt<tspan x="167.07" class="ty">datetime</tspan></text></svg><svg width="146.74" height="200" x="201.01" y="-184.46" id="h3571718501" class="t"><rect height="40" width="146.74" class="th"></rect><text x="13" y="25" class="tht">Log</text><rect height="160" width="146.74" class="t-bg"></rect><text x="13" y="61" class="tf pk">id<tspan x="133.74" class="ty">int</tspan></text><path d="M7,14A2,2 0 0,1 5,12A2,2 0 0,1 7,10A2,2 0 0,1 9,12A2,2 0 0,1 7,14M12.65,10C11.83,7.67 9.61,6 7, 6A6, 6 0 0, 0 1, 12A6, 6 0 0, 0 7, 18C9.61, 18 11.83, 16.33 12.65, 14H17V18H21V14H23V10H12.65Z" class="i pk" transform="translate(101.06617187500001, 48) scale(0.65)"></path><text x="13" y="86" class="tf">pounds<tspan x="133.74" class="ty">float</tspan></text><text x="13" y="111" class="tf">difference<tspan x="133.74" class="ty">float</tspan></text><text x="13" y="136" class="tf fk">studentId<tspan x="133.74" class="ty">int</tspan></text><text x="13" y="161" class="tf">createdAt<tspan x="133.74" class="ty">datetime</tspan></text><text x="13" y="186" class="tf">updatedAt<tspan x="133.74" class="ty">datetime</tspan></text></svg><svg width="143.39" height="150" x="200.14" y="43.1" id="h2005482782" class="t"><rect height="40" width="143.39" class="th"></rect><text x="13" y="25" class="tht">Invoice</text><rect height="110" width="143.39" class="t-bg"></rect><text x="13" y="61" class="tf pk">id<tspan x="130.39" class="ty">int</tspan></text><path d="M7,14A2,2 0 0,1 5,12A2,2 0 0,1 7,10A2,2 0 0,1 9,12A2,2 0 0,1 7,14M12.65,10C11.83,7.67 9.61,6 7, 6A6, 6 0 0, 0 1, 12A6, 6 0 0, 0 7, 18C9.61, 18 11.83, 16.33 12.65, 14H17V18H21V14H23V10H12.65Z" class="i pk" transform="translate(97.71617187499999, 48) scale(0.65)"></path><text x="13" y="86" class="tf fk">sutdentId<tspan x="130.39" class="ty">int</tspan></text><text x="13" y="111" class="tf">amount<tspan x="130.39" class="ty">float</tspan></text><text x="13" y="136" class="tf">createdAt<tspan x="130.39" class="ty">datetime</tspan></text></svg><svg width="116.04" height="175" x="437.52" y="43.33" id="h79873455" class="t"><rect height="40" width="116.04" class="th"></rect><text x="13" y="25" class="tht">Payment</text><rect height="135" width="116.04" class="t-bg"></rect><text x="13" y="61" class="tf pk">id<tspan x="103.04" class="ty">int</tspan></text><path d="M7,14A2,2 0 0,1 5,12A2,2 0 0,1 7,10A2,2 0 0,1 9,12A2,2 0 0,1 7,14M12.65,10C11.83,7.67 9.61,6 7, 6A6, 6 0 0, 0 1, 12A6, 6 0 0, 0 7, 18C9.61, 18 11.83, 16.33 12.65, 14H17V18H21V14H23V10H12.65Z" class="i pk" transform="translate(70.366171875, 48) scale(0.65)"></path><text x="13" y="86" class="tf fk">invoiceId<tspan x="103.04" class="ty">int</tspan></text><text x="13" y="111" class="tf">amount<tspan x="103.04" class="ty">float</tspan></text><text x="13" y="136" class="tf">method<tspan x="103.04" class="ty">enum</tspan></text><text x="13" y="161" class="tf">date<tspan x="103.04" class="ty">datetime</tspan></text></svg></g></g><text class="qdbd-link" x="10" y="20">www.quickdatabasediagrams.com</text></svg>