<svg class="diagram-root" style="background: #f5f6f6" xmlns="http://www.w3.org/2000/svg" xmlns:xlink="http://www.w3.org/1999/xlink"><style>.diagram-root { font-family: "Helvetica Neue", sans-serif; font-size: 12px; } .t { overflow: visible; } .t-bg { y: 40; fill: #fff;   } .th { fill: #005aa0;   } .tht { fill: #fff; font-size: 14px;  } .tf { fill: #323c46; overflow: visible; } .tf.pk { fill: #005aa0; font-weight: bold; } .tf.fk { font-weight: bold; } .ty { fill: #adb1b5; font-weight: normal; text-anchor: end; } .r { fill: transparent; stroke: #c3c3c3; stroke-width: 1; } .l { stroke: 1; } .i { fill: #c2c7ce; stroke: #c2c7ce; } .i.ix { fill: #afb3b6; stroke: #000; } .fa { fill: transparent; overflow: visible; } .fa .bg.hover { fill: #f7f7f7; } .c { cy: 12; r: 4; stroke: #d2d2dc; fill: #d2d2dc; } .hr { fill: transparent; stroke: #323c46; stroke-opacity: 0.035; stroke-width: 13; } .dc { stroke: #fa5a3c; fill: #fa5a3c; } .x { stroke: white; stroke-width: 1; } .hl .th { fill: #1b9bff; } .hl .tht {  } .fhl .bg { fill: #e7f4ff; } .fhls .bg {  } .r.hl { stroke: #1b9bff; } .dim { opacity: 0.25; }</style><g class="drawing-wrapper" transform="translate(169.77538461538447, -55.52636363636353) scale(1,1)"><g class="rs"><path d="M -2.39 218.48000000000002 m -1, 0 a 1,1 0 1,0 2,0 a 1,1 0 1,0 -2,0 M -2.39 218.48000000000002 m -0.5, 0 a 0.5,0.5 0 1,0 1,0 a 0.5,0.5 0 1,0 -1,0  M-2.39 218.48000000000002 L-2.39 218.48000000000002 9.61 218.48000000000002 M3.61 224.48000000000002 L3.61 224.48000000000002 3.61 212.48000000000002 M9.61 218.48000000000002 Q 24.67 218.48000000000002, 39.72 268.66 T 69.83272727272728 318.8463636363636 M 81.83272727272728 318.8463636363636 m -1, 0 a 1,1 0 1,0 2,0 a 1,1 0 1,0 -2,0 M 81.83272727272728 318.8463636363636 m -0.5, 0 a 0.5,0.5 0 1,0 1,0 a 0.5,0.5 0 1,0 -1,0  M81.83272727272728 318.8463636363636 L81.83272727272728 318.8463636363636 69.83272727272728 318.8463636363636 M 81.83272727272728 324.8463636363636 m -1, 0 a 1,1 0 1,0 2,0 a 1,1 0 1,0 -2,0 M 81.83272727272728 324.8463636363636 m -0.5, 0 a 0.5,0.5 0 1,0 1,0 a 0.5,0.5 0 1,0 -1,0  M81.83272727272728 324.8463636363636 L81.83272727272728 324.8463636363636 74.83272727272728 318.8463636363636 81.83272727272728 312.8463636363636 M 81.83272727272728 312.8463636363636 m -1, 0 a 1,1 0 1,0 2,0 a 1,1 0 1,0 -2,0 M 81.83272727272728 312.8463636363636 m -0.5, 0 a 0.5,0.5 0 1,0 1,0 a 0.5,0.5 0 1,0 -1,0 " id="h2616981222" class="r"></path><path d="M 254.57 343.8463636363636 m -1, 0 a 1,1 0 1,0 2,0 a 1,1 0 1,0 -2,0 M 254.57 343.8463636363636 m -0.5, 0 a 0.5,0.5 0 1,0 1,0 a 0.5,0.5 0 1,0 -1,0  M254.57 343.8463636363636 L254.57 343.8463636363636 266.57 343.8463636363636 M260.57 349.8463636363636 L260.57 349.8463636363636 260.57 337.8463636363636 M266.57 343.8463636363636 Q 284.08 343.8463636363636, 301.59 293.19 T 336.60363636363627 242.52636363636353 M 348.60363636363627 242.52636363636353 m -1, 0 a 1,1 0 1,0 2,0 a 1,1 0 1,0 -2,0 M 348.60363636363627 242.52636363636353 m -0.5, 0 a 0.5,0.5 0 1,0 1,0 a 0.5,0.5 0 1,0 -1,0  M348.60363636363627 242.52636363636353 L348.60363636363627 242.52636363636353 341.60363636363627 242.52636363636353 M 348.60363636363627 248.52636363636353 m -1, 0 a 1,1 0 1,0 2,0 a 1,1 0 1,0 -2,0 M 348.60363636363627 248.52636363636353 m -0.5, 0 a 0.5,0.5 0 1,0 1,0 a 0.5,0.5 0 1,0 -1,0  M348.60363636363627 248.52636363636353 L348.60363636363627 248.52636363636353 341.60363636363627 242.52636363636353 348.60363636363627 236.52636363636353 M 348.60363636363627 236.52636363636353 m -1, 0 a 1,1 0 1,0 2,0 a 1,1 0 1,0 -2,0 M 348.60363636363627 236.52636363636353 m -0.5, 0 a 0.5,0.5 0 1,0 1,0 a 0.5,0.5 0 1,0 -1,0  M 339.10363636363627 242.52636363636353 m -2.5, 0 a 2.5,2.5 0 1,0 5,0 a 2.5,2.5 0 1,0 -5,0" id="h2572566508" class="r"></path><path d="M 254.57 368.8463636363636 m -1, 0 a 1,1 0 1,0 2,0 a 1,1 0 1,0 -2,0 M 254.57 368.8463636363636 m -0.5, 0 a 0.5,0.5 0 1,0 1,0 a 0.5,0.5 0 1,0 -1,0  M254.57 368.8463636363636 L254.57 368.8463636363636 266.57 368.8463636363636 M260.57 374.8463636363636 L260.57 374.8463636363636 260.57 362.8463636363636 M266.57 368.8463636363636 Q 285.01 368.8463636363636, 303.44 367.12 T 340.3154545454544 365.3954545454547 M 352.3154545454544 365.3954545454547 m -1, 0 a 1,1 0 1,0 2,0 a 1,1 0 1,0 -2,0 M 352.3154545454544 365.3954545454547 m -0.5, 0 a 0.5,0.5 0 1,0 1,0 a 0.5,0.5 0 1,0 -1,0  M352.3154545454544 365.3954545454547 L352.3154545454544 365.3954545454547 345.3154545454544 365.3954545454547 M 352.3154545454544 371.3954545454547 m -1, 0 a 1,1 0 1,0 2,0 a 1,1 0 1,0 -2,0 M 352.3154545454544 371.3954545454547 m -0.5, 0 a 0.5,0.5 0 1,0 1,0 a 0.5,0.5 0 1,0 -1,0  M352.3154545454544 371.3954545454547 L352.3154545454544 371.3954545454547 345.3154545454544 365.3954545454547 352.3154545454544 359.3954545454547 M 352.3154545454544 359.3954545454547 m -1, 0 a 1,1 0 1,0 2,0 a 1,1 0 1,0 -2,0 M 352.3154545454544 359.3954545454547 m -0.5, 0 a 0.5,0.5 0 1,0 1,0 a 0.5,0.5 0 1,0 -1,0  M 342.8154545454544 365.3954545454547 m -2.5, 0 a 2.5,2.5 0 1,0 5,0 a 2.5,2.5 0 1,0 -5,0" id="h2544698326" class="r"></path><path d="M 467.7 440.3954545454547 m -1, 0 a 1,1 0 1,0 2,0 a 1,1 0 1,0 -2,0 M 467.7 440.3954545454547 m -0.5, 0 a 0.5,0.5 0 1,0 1,0 a 0.5,0.5 0 1,0 -1,0  M467.7 440.3954545454547 L467.7 440.3954545454547 479.7 440.3954545454547 M473.7 446.3954545454547 L473.7 446.3954545454547 473.7 434.3954545454547 M479.7 440.3954545454547 Q 496.89 440.3954545454547, 514.08 405.49 T 548.4590909090911 370.59363636363656 M 560.4590909090911 370.59363636363656 m -1, 0 a 1,1 0 1,0 2,0 a 1,1 0 1,0 -2,0 M 560.4590909090911 370.59363636363656 m -0.5, 0 a 0.5,0.5 0 1,0 1,0 a 0.5,0.5 0 1,0 -1,0  M560.4590909090911 370.59363636363656 L560.4590909090911 370.59363636363656 553.4590909090911 370.59363636363656 M 560.4590909090911 376.59363636363656 m -1, 0 a 1,1 0 1,0 2,0 a 1,1 0 1,0 -2,0 M 560.4590909090911 376.59363636363656 m -0.5, 0 a 0.5,0.5 0 1,0 1,0 a 0.5,0.5 0 1,0 -1,0  M560.4590909090911 376.59363636363656 L560.4590909090911 376.59363636363656 553.4590909090911 370.59363636363656 560.4590909090911 364.59363636363656 M 560.4590909090911 364.59363636363656 m -1, 0 a 1,1 0 1,0 2,0 a 1,1 0 1,0 -2,0 M 560.4590909090911 364.59363636363656 m -0.5, 0 a 0.5,0.5 0 1,0 1,0 a 0.5,0.5 0 1,0 -1,0  M 550.9590909090911 370.59363636363656 m -2.5, 0 a 2.5,2.5 0 1,0 5,0 a 2.5,2.5 0 1,0 -5,0" id="h145640306" class="r"></path></g><g class="hrs"></g><g class="ts"><svg width="145.39" height="150" x="-147.78" y="86.48" id="h452274459" class="t"><rect height="40" width="145.39" class="th"></rect><text x="13" y="25" class="tht">Classroom</text><rect height="110" width="145.39" class="t-bg"></rect><text x="13" y="61" class="tf pk">id<tspan x="132.39" class="ty">int</tspan></text><path d="M7,14A2,2 0 0,1 5,12A2,2 0 0,1 7,10A2,2 0 0,1 9,12A2,2 0 0,1 7,14M12.65,10C11.83,7.67 9.61,6 7, 6A6, 6 0 0, 0 1, 12A6, 6 0 0, 0 7, 18C9.61, 18 11.83, 16.33 12.65, 14H17V18H21V14H23V10H12.65Z" class="i pk" transform="translate(99.71617187499999, 48) scale(0.65)"></path><text x="13" y="86" class="tf">name<tspan x="132.39" class="ty">sting</tspan></text><text x="13" y="111" class="tf">start_date<tspan x="132.39" class="ty">datetime</tspan></text><text x="13" y="136" class="tf fk">students<tspan x="132.39" class="ty">[...]</tspan></text></svg><svg width="172.74" height="300" x="81.83272727272728" y="86.84636363636362" id="h2268466501" class="t"><rect height="40" width="172.74" class="th"></rect><text x="13" y="25" class="tht">Student</text><rect height="260" width="172.74" class="t-bg"></rect><text x="13" y="61" class="tf pk">id<tspan x="159.74" class="ty">int</tspan></text><path d="M7,14A2,2 0 0,1 5,12A2,2 0 0,1 7,10A2,2 0 0,1 9,12A2,2 0 0,1 7,14M12.65,10C11.83,7.67 9.61,6 7, 6A6, 6 0 0, 0 1, 12A6, 6 0 0, 0 7, 18C9.61, 18 11.83, 16.33 12.65, 14H17V18H21V14H23V10H12.65Z" class="i pk" transform="translate(127.06617187500001, 48) scale(0.65)"></path><text x="13" y="86" class="tf">username<tspan x="159.74" class="ty">string</tspan></text><text x="13" y="111" class="tf">password<tspan x="159.74" class="ty">hashed_string</tspan></text><text x="13" y="136" class="tf">first_name<tspan x="159.74" class="ty">string</tspan></text><text x="13" y="161" class="tf">last_name<tspan x="159.74" class="ty">string</tspan></text><text x="13" y="186" class="tf">sex<tspan x="159.74" class="ty">enum</tspan></text><text x="13" y="211" class="tf">birth_date<tspan x="159.74" class="ty">datetime</tspan></text><text x="13" y="236" class="tf fk">classroom_id<tspan x="159.74" class="ty">int?</tspan></text><text x="13" y="261" class="tf fk">logs<tspan x="159.74" class="ty">[...]</tspan></text><text x="13" y="286" class="tf fk">invoices<tspan x="159.74" class="ty">[...]</tspan></text></svg><svg width="122.07" height="175" x="348.60363636363627" y="85.52636363636353" id="h3571718501" class="t"><rect height="40" width="122.07" class="th"></rect><text x="13" y="25" class="tht">Log</text><rect height="135" width="122.07" class="t-bg"></rect><text x="13" y="61" class="tf pk">id<tspan x="109.07" class="ty">int</tspan></text><path d="M7,14A2,2 0 0,1 5,12A2,2 0 0,1 7,10A2,2 0 0,1 9,12A2,2 0 0,1 7,14M12.65,10C11.83,7.67 9.61,6 7, 6A6, 6 0 0, 0 1, 12A6, 6 0 0, 0 7, 18C9.61, 18 11.83, 16.33 12.65, 14H17V18H21V14H23V10H12.65Z" class="i pk" transform="translate(76.396171875, 48) scale(0.65)"></path><text x="13" y="86" class="tf">lbs<tspan x="109.07" class="ty">float</tspan></text><text x="13" y="111" class="tf">date<tspan x="109.07" class="ty">datetime</tspan></text><text x="13" y="136" class="tf">on_period<tspan x="109.07" class="ty">bool</tspan></text><text x="13" y="161" class="tf fk">student_id<tspan x="109.07" class="ty">int</tspan></text></svg><svg width="115.38" height="175" x="352.3154545454544" y="283.3954545454547" id="h2005482782" class="t"><rect height="40" width="115.38" class="th"></rect><text x="13" y="25" class="tht">Invoice</text><rect height="135" width="115.38" class="t-bg"></rect><text x="13" y="61" class="tf pk">id<tspan x="102.38" class="ty">int</tspan></text><path d="M7,14A2,2 0 0,1 5,12A2,2 0 0,1 7,10A2,2 0 0,1 9,12A2,2 0 0,1 7,14M12.65,10C11.83,7.67 9.61,6 7, 6A6, 6 0 0, 0 1, 12A6, 6 0 0, 0 7, 18C9.61, 18 11.83, 16.33 12.65, 14H17V18H21V14H23V10H12.65Z" class="i pk" transform="translate(69.706171875, 48) scale(0.65)"></path><text x="13" y="86" class="tf fk">sutdent_id<tspan x="102.38" class="ty">int</tspan></text><text x="13" y="111" class="tf">total<tspan x="102.38" class="ty">float</tspan></text><text x="13" y="136" class="tf">date<tspan x="102.38" class="ty">datetime</tspan></text><text x="13" y="161" class="tf fk">payments<tspan x="102.38" class="ty">[...]</tspan></text></svg><svg width="116.04" height="175" x="560.4590909090911" y="288.59363636363656" id="h79873455" class="t"><rect height="40" width="116.04" class="th"></rect><text x="13" y="25" class="tht">Payment</text><rect height="135" width="116.04" class="t-bg"></rect><text x="13" y="61" class="tf pk">id<tspan x="103.04" class="ty">int</tspan></text><path d="M7,14A2,2 0 0,1 5,12A2,2 0 0,1 7,10A2,2 0 0,1 9,12A2,2 0 0,1 7,14M12.65,10C11.83,7.67 9.61,6 7, 6A6, 6 0 0, 0 1, 12A6, 6 0 0, 0 7, 18C9.61, 18 11.83, 16.33 12.65, 14H17V18H21V14H23V10H12.65Z" class="i pk" transform="translate(70.366171875, 48) scale(0.65)"></path><text x="13" y="86" class="tf fk">invoice_id<tspan x="103.04" class="ty">int</tspan></text><text x="13" y="111" class="tf">amount<tspan x="103.04" class="ty">float</tspan></text><text x="13" y="136" class="tf">method<tspan x="103.04" class="ty">enum</tspan></text><text x="13" y="161" class="tf">date<tspan x="103.04" class="ty">datetime</tspan></text></svg></g></g><text class="qdbd-link" x="10" y="20">www.quickdatabasediagrams.com</text></svg>